<svg width="146" height="30" viewBox="0 0 146 30" fill="none" xmlns="http://www.w3.org/2000/svg">
<path opacity="0.8" d="M5.5625 0.25L10.3125 10.625L15.0625 0.25H20.1719L12.6875 14.7188V23H7.9375V14.7188L0.4375 0.25H5.5625ZM20.2188 14.7188V14.3906C20.2188 13.151 20.3958 12.0104 20.75 10.9688C21.1042 9.91667 21.6198 9.00521 22.2969 8.23438C22.974 7.46354 23.8073 6.86458 24.7969 6.4375C25.7865 6 26.9219 5.78125 28.2031 5.78125C29.4844 5.78125 30.625 6 31.625 6.4375C32.625 6.86458 33.4635 7.46354 34.1406 8.23438C34.8281 9.00521 35.349 9.91667 35.7031 10.9688C36.0573 12.0104 36.2344 13.151 36.2344 14.3906V14.7188C36.2344 15.9479 36.0573 17.0885 35.7031 18.1406C35.349 19.1823 34.8281 20.0938 34.1406 20.875C33.4635 21.6458 32.6302 22.2448 31.6406 22.6719C30.651 23.099 29.5156 23.3125 28.2344 23.3125C26.9531 23.3125 25.8125 23.099 24.8125 22.6719C23.8229 22.2448 22.9844 21.6458 22.2969 20.875C21.6198 20.0938 21.1042 19.1823 20.75 18.1406C20.3958 17.0885 20.2188 15.9479 20.2188 14.7188ZM24.7188 14.3906V14.7188C24.7188 15.4271 24.7812 16.0885 24.9062 16.7031C25.0312 17.3177 25.2292 17.8594 25.5 18.3281C25.7812 18.7865 26.1458 19.1458 26.5938 19.4062C27.0417 19.6667 27.5885 19.7969 28.2344 19.7969C28.8594 19.7969 29.3958 19.6667 29.8438 19.4062C30.2917 19.1458 30.651 18.7865 30.9219 18.3281C31.1927 17.8594 31.3906 17.3177 31.5156 16.7031C31.651 16.0885 31.7188 15.4271 31.7188 14.7188V14.3906C31.7188 13.7031 31.651 13.0573 31.5156 12.4531C31.3906 11.8385 31.1875 11.2969 30.9062 10.8281C30.6354 10.349 30.276 9.97396 29.8281 9.70312C29.3802 9.43229 28.8385 9.29688 28.2031 9.29688C27.5677 9.29688 27.026 9.43229 26.5781 9.70312C26.1406 9.97396 25.7812 10.349 25.5 10.8281C25.2292 11.2969 25.0312 11.8385 24.9062 12.4531C24.7812 13.0573 24.7188 13.7031 24.7188 14.3906ZM49 18.9531V6.09375H53.5V23H49.2656L49 18.9531ZM49.5 15.4844L50.8281 15.4531C50.8281 16.5781 50.6979 17.625 50.4375 18.5938C50.1771 19.5521 49.7865 20.3854 49.2656 21.0938C48.7448 21.7917 48.0885 22.3385 47.2969 22.7344C46.5052 23.1198 45.5729 23.3125 44.5 23.3125C43.6771 23.3125 42.9167 23.1979 42.2188 22.9688C41.5312 22.7292 40.9375 22.3594 40.4375 21.8594C39.9479 21.349 39.5625 20.6979 39.2812 19.9062C39.0104 19.1042 38.875 18.1406 38.875 17.0156V6.09375H43.375V17.0469C43.375 17.5469 43.4323 17.9688 43.5469 18.3125C43.6719 18.6562 43.8438 18.9375 44.0625 19.1562C44.2812 19.375 44.5365 19.5312 44.8281 19.625C45.1302 19.7188 45.4635 19.7656 45.8281 19.7656C46.7552 19.7656 47.4844 19.5781 48.0156 19.2031C48.5573 18.8281 48.9375 18.3177 49.1562 17.6719C49.3854 17.0156 49.5 16.2865 49.5 15.4844ZM61.4375 9.78125V23H56.9375V6.09375H61.1719L61.4375 9.78125ZM66.5312 5.98438L66.4531 10.1562C66.2344 10.125 65.9688 10.099 65.6562 10.0781C65.3542 10.0469 65.0781 10.0312 64.8281 10.0312C64.1927 10.0312 63.6406 10.1146 63.1719 10.2812C62.7135 10.4375 62.3281 10.6719 62.0156 10.9844C61.7135 11.2969 61.4844 11.6771 61.3281 12.125C61.1823 12.5729 61.099 13.0833 61.0781 13.6562L60.1719 13.375C60.1719 12.2812 60.2812 11.276 60.5 10.3594C60.7188 9.43229 61.0365 8.625 61.4531 7.9375C61.8802 7.25 62.401 6.71875 63.0156 6.34375C63.6302 5.96875 64.3333 5.78125 65.125 5.78125C65.375 5.78125 65.6302 5.80208 65.8906 5.84375C66.151 5.875 66.3646 5.92188 66.5312 5.98438ZM91.5312 19.3438V23H80.0781V19.3438H91.5312ZM81.5938 0.25V23H76.9062V0.25H81.5938ZM93.2188 14.7188V14.3906C93.2188 13.151 93.3958 12.0104 93.75 10.9688C94.1042 9.91667 94.6198 9.00521 95.2969 8.23438C95.974 7.46354 96.8073 6.86458 97.7969 6.4375C98.7865 6 99.9219 5.78125 101.203 5.78125C102.484 5.78125 103.625 6 104.625 6.4375C105.625 6.86458 106.464 7.46354 107.141 8.23438C107.828 9.00521 108.349 9.91667 108.703 10.9688C109.057 12.0104 109.234 13.151 109.234 14.3906V14.7188C109.234 15.9479 109.057 17.0885 108.703 18.1406C108.349 19.1823 107.828 20.0938 107.141 20.875C106.464 21.6458 105.63 22.2448 104.641 22.6719C103.651 23.099 102.516 23.3125 101.234 23.3125C99.9531 23.3125 98.8125 23.099 97.8125 22.6719C96.8229 22.2448 95.9844 21.6458 95.2969 20.875C94.6198 20.0938 94.1042 19.1823 93.75 18.1406C93.3958 17.0885 93.2188 15.9479 93.2188 14.7188ZM97.7188 14.3906V14.7188C97.7188 15.4271 97.7812 16.0885 97.9062 16.7031C98.0312 17.3177 98.2292 17.8594 98.5 18.3281C98.7812 18.7865 99.1458 19.1458 99.5938 19.4062C100.042 19.6667 100.589 19.7969 101.234 19.7969C101.859 19.7969 102.396 19.6667 102.844 19.4062C103.292 19.1458 103.651 18.7865 103.922 18.3281C104.193 17.8594 104.391 17.3177 104.516 16.7031C104.651 16.0885 104.719 15.4271 104.719 14.7188V14.3906C104.719 13.7031 104.651 13.0573 104.516 12.4531C104.391 11.8385 104.188 11.2969 103.906 10.8281C103.635 10.349 103.276 9.97396 102.828 9.70312C102.38 9.43229 101.839 9.29688 101.203 9.29688C100.568 9.29688 100.026 9.43229 99.5781 9.70312C99.1406 9.97396 98.7812 10.349 98.5 10.8281C98.2292 11.2969 98.0312 11.8385 97.9062 12.4531C97.7812 13.0573 97.7188 13.7031 97.7188 14.3906ZM122.703 6.09375H126.781V22.4375C126.781 23.9792 126.438 25.2865 125.75 26.3594C125.073 27.4427 124.125 28.2604 122.906 28.8125C121.688 29.375 120.271 29.6562 118.656 29.6562C117.948 29.6562 117.198 29.5625 116.406 29.375C115.625 29.1875 114.875 28.8958 114.156 28.5C113.448 28.1042 112.854 27.6042 112.375 27L114.359 24.3438C114.88 24.9479 115.484 25.4167 116.172 25.75C116.859 26.0938 117.62 26.2656 118.453 26.2656C119.266 26.2656 119.953 26.1146 120.516 25.8125C121.078 25.5208 121.51 25.0885 121.812 24.5156C122.115 23.9531 122.266 23.2708 122.266 22.4688V10L122.703 6.09375ZM111.328 14.75V14.4219C111.328 13.1302 111.484 11.9583 111.797 10.9062C112.12 9.84375 112.573 8.93229 113.156 8.17188C113.75 7.41146 114.469 6.82292 115.312 6.40625C116.156 5.98958 117.109 5.78125 118.172 5.78125C119.297 5.78125 120.24 5.98958 121 6.40625C121.76 6.82292 122.385 7.41667 122.875 8.1875C123.365 8.94792 123.745 9.84896 124.016 10.8906C124.297 11.9219 124.516 13.0521 124.672 14.2812V15C124.516 16.1771 124.281 17.2708 123.969 18.2812C123.656 19.2917 123.245 20.1771 122.734 20.9375C122.224 21.6875 121.589 22.2708 120.828 22.6875C120.078 23.1042 119.182 23.3125 118.141 23.3125C117.099 23.3125 116.156 23.099 115.312 22.6719C114.479 22.2448 113.766 21.6458 113.172 20.875C112.578 20.1042 112.12 19.1979 111.797 18.1562C111.484 17.1146 111.328 15.9792 111.328 14.75ZM115.828 14.4219V14.75C115.828 15.4479 115.896 16.099 116.031 16.7031C116.167 17.3073 116.375 17.8438 116.656 18.3125C116.948 18.7708 117.307 19.1302 117.734 19.3906C118.172 19.6406 118.688 19.7656 119.281 19.7656C120.104 19.7656 120.776 19.5938 121.297 19.25C121.818 18.8958 122.208 18.4115 122.469 17.7969C122.729 17.1823 122.88 16.474 122.922 15.6719V13.625C122.901 12.9688 122.812 12.3802 122.656 11.8594C122.5 11.3281 122.281 10.875 122 10.5C121.719 10.125 121.354 9.83333 120.906 9.625C120.458 9.41667 119.927 9.3125 119.312 9.3125C118.719 9.3125 118.203 9.44792 117.766 9.71875C117.339 9.97917 116.979 10.3385 116.688 10.7969C116.406 11.2552 116.193 11.7969 116.047 12.4219C115.901 13.0365 115.828 13.7031 115.828 14.4219ZM129.562 14.7188V14.3906C129.562 13.151 129.74 12.0104 130.094 10.9688C130.448 9.91667 130.964 9.00521 131.641 8.23438C132.318 7.46354 133.151 6.86458 134.141 6.4375C135.13 6 136.266 5.78125 137.547 5.78125C138.828 5.78125 139.969 6 140.969 6.4375C141.969 6.86458 142.807 7.46354 143.484 8.23438C144.172 9.00521 144.693 9.91667 145.047 10.9688C145.401 12.0104 145.578 13.151 145.578 14.3906V14.7188C145.578 15.9479 145.401 17.0885 145.047 18.1406C144.693 19.1823 144.172 20.0938 143.484 20.875C142.807 21.6458 141.974 22.2448 140.984 22.6719C139.995 23.099 138.859 23.3125 137.578 23.3125C136.297 23.3125 135.156 23.099 134.156 22.6719C133.167 22.2448 132.328 21.6458 131.641 20.875C130.964 20.0938 130.448 19.1823 130.094 18.1406C129.74 17.0885 129.562 15.9479 129.562 14.7188ZM134.062 14.3906V14.7188C134.062 15.4271 134.125 16.0885 134.25 16.7031C134.375 17.3177 134.573 17.8594 134.844 18.3281C135.125 18.7865 135.49 19.1458 135.938 19.4062C136.385 19.6667 136.932 19.7969 137.578 19.7969C138.203 19.7969 138.74 19.6667 139.188 19.4062C139.635 19.1458 139.995 18.7865 140.266 18.3281C140.536 17.8594 140.734 17.3177 140.859 16.7031C140.995 16.0885 141.062 15.4271 141.062 14.7188V14.3906C141.062 13.7031 140.995 13.0573 140.859 12.4531C140.734 11.8385 140.531 11.2969 140.25 10.8281C139.979 10.349 139.62 9.97396 139.172 9.70312C138.724 9.43229 138.182 9.29688 137.547 9.29688C136.911 9.29688 136.37 9.43229 135.922 9.70312C135.484 9.97396 135.125 10.349 134.844 10.8281C134.573 11.2969 134.375 11.8385 134.25 12.4531C134.125 13.0573 134.062 13.7031 134.062 14.3906Z" fill="#C72C3C"></path>
</svg>
